<?xml version="1.0" encoding="UTF-8" standalone="no"?><!DOCTYPE svg PUBLIC "-//W3C//DTD SVG 1.1//EN" "http://www.w3.org/Graphics/SVG/1.1/DTD/svg11.dtd"><!-- Generated by graphviz version 2.40.1 (20161225.0304)
 --><!-- Title: Tree Pages: 1 --><svg xmlns="http://www.w3.org/2000/svg" xmlns:xlink="http://www.w3.org/1999/xlink" width="1243pt" height="511pt" viewBox="0.00 0.00 1242.71 511.20">
<g id="graph0" class="graph" transform="scale(1 1) rotate(0) translate(4 507.2)">
<title>Tree</title>
<polygon fill="#ffffff" stroke="transparent" points="-4,4 -4,-507.2 1238.7144,-507.2 1238.7144,4 -4,4"/>
<!-- 0 -->
<g id="node1" class="node">
<title>0</title>
<polygon fill="none" stroke="#000000" points="781.1823,-503.3003 639.5321,-503.3003 639.5321,-427.8997 781.1823,-427.8997 781.1823,-503.3003"/>
<text text-anchor="middle" x="710.3572" y="-486.6" font-family="Times,serif" font-size="14.00" fill="#000000">kw_avg_avg &lt;= 0.103</text>
<text text-anchor="middle" x="710.3572" y="-469.8" font-family="Times,serif" font-size="14.00" fill="#000000">mse = 0.872</text>
<text text-anchor="middle" x="710.3572" y="-453" font-family="Times,serif" font-size="14.00" fill="#000000">samples = 3715</text>
<text text-anchor="middle" x="710.3572" y="-436.2" font-family="Times,serif" font-size="14.00" fill="#000000">value = 7.465</text>
</g>
<!-- 1 -->
<g id="node2" class="node">
<title>1</title>
<polygon fill="none" stroke="#000000" points="625.7438,-392.1003 502.9706,-392.1003 502.9706,-316.6997 625.7438,-316.6997 625.7438,-392.1003"/>
<text text-anchor="middle" x="564.3572" y="-375.4" font-family="Times,serif" font-size="14.00" fill="#000000">timedelta &lt;= 1.632</text>
<text text-anchor="middle" x="564.3572" y="-358.6" font-family="Times,serif" font-size="14.00" fill="#000000">mse = 0.634</text>
<text text-anchor="middle" x="564.3572" y="-341.8" font-family="Times,serif" font-size="14.00" fill="#000000">samples = 2410</text>
<text text-anchor="middle" x="564.3572" y="-325" font-family="Times,serif" font-size="14.00" fill="#000000">value = 7.258</text>
</g>
<!-- 0&#45;&gt;1 -->
<g id="edge1" class="edge">
<title>0-&gt;1</title>
<path fill="none" stroke="#000000" d="M660.9283,-427.9528C648.3229,-418.3519 634.6671,-407.9511 621.7026,-398.0768"/>
<polygon fill="#000000" stroke="#000000" points="623.8113,-395.2833 613.7352,-392.0085 619.5699,-400.852 623.8113,-395.2833"/>
<text text-anchor="middle" x="617.0873" y="-412.5827" font-family="Times,serif" font-size="14.00" fill="#000000">True</text>
</g>
<!-- 12 -->
<g id="node13" class="node">
<title>12</title>
<polygon fill="none" stroke="#000000" points="916.7104,-392.1003 688.004,-392.1003 688.004,-316.6997 916.7104,-316.6997 916.7104,-392.1003"/>
<text text-anchor="middle" x="802.3572" y="-375.4" font-family="Times,serif" font-size="14.00" fill="#000000">self_reference_avg_sharess &lt;= -0.082</text>
<text text-anchor="middle" x="802.3572" y="-358.6" font-family="Times,serif" font-size="14.00" fill="#000000">mse = 1.088</text>
<text text-anchor="middle" x="802.3572" y="-341.8" font-family="Times,serif" font-size="14.00" fill="#000000">samples = 1305</text>
<text text-anchor="middle" x="802.3572" y="-325" font-family="Times,serif" font-size="14.00" fill="#000000">value = 7.846</text>
</g>
<!-- 0&#45;&gt;12 -->
<g id="edge12" class="edge">
<title>0-&gt;12</title>
<path fill="none" stroke="#000000" d="M741.5042,-427.9528C748.9977,-418.8954 757.0803,-409.126 764.8305,-399.7584"/>
<polygon fill="#000000" stroke="#000000" points="767.5644,-401.9445 771.2423,-392.0085 762.171,-397.4823 767.5644,-401.9445"/>
<text text-anchor="middle" x="773.594" y="-412.6976" font-family="Times,serif" font-size="14.00" fill="#000000">False</text>
</g>
<!-- 2 -->
<g id="node3" class="node">
<title>2</title>
<polygon fill="none" stroke="#000000" points="449.1566,-280.9003 221.5578,-280.9003 221.5578,-205.4997 449.1566,-205.4997 449.1566,-280.9003"/>
<text text-anchor="middle" x="335.3572" y="-264.2" font-family="Times,serif" font-size="14.00" fill="#000000">self_reference_max_shares &lt;= -0.184</text>
<text text-anchor="middle" x="335.3572" y="-247.4" font-family="Times,serif" font-size="14.00" fill="#000000">mse = 0.573</text>
<text text-anchor="middle" x="335.3572" y="-230.6" font-family="Times,serif" font-size="14.00" fill="#000000">samples = 2354</text>
<text text-anchor="middle" x="335.3572" y="-213.8" font-family="Times,serif" font-size="14.00" fill="#000000">value = 7.221</text>
</g>
<!-- 1&#45;&gt;2 -->
<g id="edge2" class="edge">
<title>1-&gt;2</title>
<path fill="none" stroke="#000000" d="M502.9894,-324.6004C478.1121,-312.5203 448.9353,-298.3523 421.9585,-285.2527"/>
<polygon fill="#000000" stroke="#000000" points="423.428,-282.0755 412.9036,-280.8557 420.3703,-288.3724 423.428,-282.0755"/>
</g>
<!-- 9 -->
<g id="node10" class="node">
<title>9</title>
<polygon fill="none" stroke="#000000" points="656.1697,-280.9003 472.5447,-280.9003 472.5447,-205.4997 656.1697,-205.4997 656.1697,-280.9003"/>
<text text-anchor="middle" x="564.3572" y="-264.2" font-family="Times,serif" font-size="14.00" fill="#000000">rate_positive_words &lt;= 0.363</text>
<text text-anchor="middle" x="564.3572" y="-247.4" font-family="Times,serif" font-size="14.00" fill="#000000">mse = 0.684</text>
<text text-anchor="middle" x="564.3572" y="-230.6" font-family="Times,serif" font-size="14.00" fill="#000000">samples = 56</text>
<text text-anchor="middle" x="564.3572" y="-213.8" font-family="Times,serif" font-size="14.00" fill="#000000">value = 8.82</text>
</g>
<!-- 1&#45;&gt;9 -->
<g id="edge9" class="edge">
<title>1-&gt;9</title>
<path fill="none" stroke="#000000" d="M564.3572,-316.7528C564.3572,-308.42 564.3572,-299.4845 564.3572,-290.8137"/>
<polygon fill="#000000" stroke="#000000" points="567.8573,-290.8084 564.3572,-280.8085 560.8573,-290.8085 567.8573,-290.8084"/>
</g>
<!-- 3 -->
<g id="node4" class="node">
<title>3</title>
<polygon fill="none" stroke="#000000" points="257.7972,-169.7003 28.9172,-169.7003 28.9172,-94.2997 257.7972,-94.2997 257.7972,-169.7003"/>
<text text-anchor="middle" x="143.3572" y="-153" font-family="Times,serif" font-size="14.00" fill="#000000">n_non_stop_unique_tokens &lt;= -0.599</text>
<text text-anchor="middle" x="143.3572" y="-136.2" font-family="Times,serif" font-size="14.00" fill="#000000">mse = 0.547</text>
<text text-anchor="middle" x="143.3572" y="-119.4" font-family="Times,serif" font-size="14.00" fill="#000000">samples = 1201</text>
<text text-anchor="middle" x="143.3572" y="-102.6" font-family="Times,serif" font-size="14.00" fill="#000000">value = 7.096</text>
</g>
<!-- 2&#45;&gt;3 -->
<g id="edge3" class="edge">
<title>2-&gt;3</title>
<path fill="none" stroke="#000000" d="M270.3548,-205.5528C253.3087,-195.6802 234.8019,-184.9617 217.325,-174.8397"/>
<polygon fill="#000000" stroke="#000000" points="218.7003,-171.5916 208.2927,-169.6085 215.192,-177.649 218.7003,-171.5916"/>
</g>
<!-- 6 -->
<g id="node7" class="node">
<title>6</title>
<polygon fill="none" stroke="#000000" points="395.4122,-169.7003 275.3022,-169.7003 275.3022,-94.2997 395.4122,-94.2997 395.4122,-169.7003"/>
<text text-anchor="middle" x="335.3572" y="-153" font-family="Times,serif" font-size="14.00" fill="#000000">LDA_04 &lt;= 0.942</text>
<text text-anchor="middle" x="335.3572" y="-136.2" font-family="Times,serif" font-size="14.00" fill="#000000">mse = 0.568</text>
<text text-anchor="middle" x="335.3572" y="-119.4" font-family="Times,serif" font-size="14.00" fill="#000000">samples = 1153</text>
<text text-anchor="middle" x="335.3572" y="-102.6" font-family="Times,serif" font-size="14.00" fill="#000000">value = 7.352</text>
</g>
<!-- 2&#45;&gt;6 -->
<g id="edge6" class="edge">
<title>2-&gt;6</title>
<path fill="none" stroke="#000000" d="M335.3572,-205.5528C335.3572,-197.22 335.3572,-188.2845 335.3572,-179.6137"/>
<polygon fill="#000000" stroke="#000000" points="338.8573,-179.6084 335.3572,-169.6085 331.8573,-179.6085 338.8573,-179.6084"/>
</g>
<!-- 4 -->
<g id="node5" class="node">
<title>4</title>
<polygon fill="none" stroke="#000000" points="92.572,-58.6014 .1424,-58.6014 .1424,.2014 92.572,.2014 92.572,-58.6014"/>
<text text-anchor="middle" x="46.3572" y="-41.8" font-family="Times,serif" font-size="14.00" fill="#000000">mse = 0.876</text>
<text text-anchor="middle" x="46.3572" y="-25" font-family="Times,serif" font-size="14.00" fill="#000000">samples = 76</text>
<text text-anchor="middle" x="46.3572" y="-8.2" font-family="Times,serif" font-size="14.00" fill="#000000">value = 7.463</text>
</g>
<!-- 3&#45;&gt;4 -->
<g id="edge4" class="edge">
<title>3-&gt;4</title>
<path fill="none" stroke="#000000" d="M107.7888,-94.3048C99.0869,-85.0826 89.7859,-75.2255 81.1222,-66.0437"/>
<polygon fill="#000000" stroke="#000000" points="83.4303,-63.3899 74.0217,-58.5186 78.339,-68.194 83.4303,-63.3899"/>
</g>
<!-- 5 -->
<g id="node6" class="node">
<title>5</title>
<polygon fill="none" stroke="#000000" points="214.3514,-58.6014 110.363,-58.6014 110.363,.2014 214.3514,.2014 214.3514,-58.6014"/>
<text text-anchor="middle" x="162.3572" y="-41.8" font-family="Times,serif" font-size="14.00" fill="#000000">mse = 0.515</text>
<text text-anchor="middle" x="162.3572" y="-25" font-family="Times,serif" font-size="14.00" fill="#000000">samples = 1125</text>
<text text-anchor="middle" x="162.3572" y="-8.2" font-family="Times,serif" font-size="14.00" fill="#000000">value = 7.071</text>
</g>
<!-- 3&#45;&gt;5 -->
<g id="edge5" class="edge">
<title>3-&gt;5</title>
<path fill="none" stroke="#000000" d="M150.3242,-94.3048C151.8753,-85.9126 153.5236,-76.9946 155.0865,-68.5382"/>
<polygon fill="#000000" stroke="#000000" points="158.5625,-68.9882 156.9384,-58.5186 151.6791,-67.7159 158.5625,-68.9882"/>
</g>
<!-- 7 -->
<g id="node8" class="node">
<title>7</title>
<polygon fill="none" stroke="#000000" points="365.8514,-58.6014 268.863,-58.6014 268.863,.2014 365.8514,.2014 365.8514,-58.6014"/>
<text text-anchor="middle" x="317.3572" y="-41.8" font-family="Times,serif" font-size="14.00" fill="#000000">mse = 0.55</text>
<text text-anchor="middle" x="317.3572" y="-25" font-family="Times,serif" font-size="14.00" fill="#000000">samples = 823</text>
<text text-anchor="middle" x="317.3572" y="-8.2" font-family="Times,serif" font-size="14.00" fill="#000000">value = 7.276</text>
</g>
<!-- 6&#45;&gt;7 -->
<g id="edge7" class="edge">
<title>6-&gt;7</title>
<path fill="none" stroke="#000000" d="M328.7569,-94.3048C327.2874,-85.9126 325.7259,-76.9946 324.2452,-68.5382"/>
<polygon fill="#000000" stroke="#000000" points="327.6632,-67.7651 322.4908,-58.5186 320.7681,-68.9725 327.6632,-67.7651"/>
</g>
<!-- 8 -->
<g id="node9" class="node">
<title>8</title>
<polygon fill="none" stroke="#000000" points="480.8514,-58.6014 383.863,-58.6014 383.863,.2014 480.8514,.2014 480.8514,-58.6014"/>
<text text-anchor="middle" x="432.3572" y="-41.8" font-family="Times,serif" font-size="14.00" fill="#000000">mse = 0.563</text>
<text text-anchor="middle" x="432.3572" y="-25" font-family="Times,serif" font-size="14.00" fill="#000000">samples = 330</text>
<text text-anchor="middle" x="432.3572" y="-8.2" font-family="Times,serif" font-size="14.00" fill="#000000">value = 7.541</text>
</g>
<!-- 6&#45;&gt;8 -->
<g id="edge8" class="edge">
<title>6-&gt;8</title>
<path fill="none" stroke="#000000" d="M370.9256,-94.3048C379.6275,-85.0826 388.9285,-75.2255 397.5922,-66.0437"/>
<polygon fill="#000000" stroke="#000000" points="400.3754,-68.194 404.6927,-58.5186 395.2841,-63.3899 400.3754,-68.194"/>
</g>
<!-- 10 -->
<g id="node11" class="node">
<title>10</title>
<polygon fill="none" stroke="#000000" points="505.572,-161.4014 413.1424,-161.4014 413.1424,-102.5986 505.572,-102.5986 505.572,-161.4014"/>
<text text-anchor="middle" x="459.3572" y="-144.6" font-family="Times,serif" font-size="14.00" fill="#000000">mse = 1.02</text>
<text text-anchor="middle" x="459.3572" y="-127.8" font-family="Times,serif" font-size="14.00" fill="#000000">samples = 25</text>
<text text-anchor="middle" x="459.3572" y="-111" font-family="Times,serif" font-size="14.00" fill="#000000">value = 9.087</text>
</g>
<!-- 9&#45;&gt;10 -->
<g id="edge10" class="edge">
<title>9-&gt;10</title>
<path fill="none" stroke="#000000" d="M528.809,-205.5528C517.6816,-193.7683 505.4161,-180.7786 494.3288,-169.0366"/>
<polygon fill="#000000" stroke="#000000" points="496.6471,-166.3938 487.2368,-161.5258 491.5575,-171.1996 496.6471,-166.3938"/>
</g>
<!-- 11 -->
<g id="node12" class="node">
<title>11</title>
<polygon fill="none" stroke="#000000" points="616.572,-161.4014 524.1424,-161.4014 524.1424,-102.5986 616.572,-102.5986 616.572,-161.4014"/>
<text text-anchor="middle" x="570.3572" y="-144.6" font-family="Times,serif" font-size="14.00" fill="#000000">mse = 0.309</text>
<text text-anchor="middle" x="570.3572" y="-127.8" font-family="Times,serif" font-size="14.00" fill="#000000">samples = 31</text>
<text text-anchor="middle" x="570.3572" y="-111" font-family="Times,serif" font-size="14.00" fill="#000000">value = 8.604</text>
</g>
<!-- 9&#45;&gt;11 -->
<g id="edge11" class="edge">
<title>9-&gt;11</title>
<path fill="none" stroke="#000000" d="M566.3885,-205.5528C566.9759,-194.6662 567.6188,-182.751 568.2129,-171.7411"/>
<polygon fill="#000000" stroke="#000000" points="571.7201,-171.6999 568.7641,-161.5258 564.7303,-171.3227 571.7201,-171.6999"/>
</g>
<!-- 13 -->
<g id="node14" class="node">
<title>13</title>
<polygon fill="none" stroke="#000000" points="873.1823,-280.9003 731.5321,-280.9003 731.5321,-205.4997 873.1823,-205.4997 873.1823,-280.9003"/>
<text text-anchor="middle" x="802.3572" y="-264.2" font-family="Times,serif" font-size="14.00" fill="#000000">kw_avg_avg &lt;= 1.555</text>
<text text-anchor="middle" x="802.3572" y="-247.4" font-family="Times,serif" font-size="14.00" fill="#000000">mse = 1.095</text>
<text text-anchor="middle" x="802.3572" y="-230.6" font-family="Times,serif" font-size="14.00" fill="#000000">samples = 813</text>
<text text-anchor="middle" x="802.3572" y="-213.8" font-family="Times,serif" font-size="14.00" fill="#000000">value = 7.73</text>
</g>
<!-- 12&#45;&gt;13 -->
<g id="edge13" class="edge">
<title>12-&gt;13</title>
<path fill="none" stroke="#000000" d="M802.3572,-316.7528C802.3572,-308.42 802.3572,-299.4845 802.3572,-290.8137"/>
<polygon fill="#000000" stroke="#000000" points="805.8573,-290.8084 802.3572,-280.8085 798.8573,-290.8085 805.8573,-290.8084"/>
</g>
<!-- 20 -->
<g id="node21" class="node">
<title>20</title>
<polygon fill="none" stroke="#000000" points="1096.7438,-280.9003 973.9706,-280.9003 973.9706,-205.4997 1096.7438,-205.4997 1096.7438,-280.9003"/>
<text text-anchor="middle" x="1035.3572" y="-264.2" font-family="Times,serif" font-size="14.00" fill="#000000">timedelta &lt;= 1.677</text>
<text text-anchor="middle" x="1035.3572" y="-247.4" font-family="Times,serif" font-size="14.00" fill="#000000">mse = 1.016</text>
<text text-anchor="middle" x="1035.3572" y="-230.6" font-family="Times,serif" font-size="14.00" fill="#000000">samples = 492</text>
<text text-anchor="middle" x="1035.3572" y="-213.8" font-family="Times,serif" font-size="14.00" fill="#000000">value = 8.038</text>
</g>
<!-- 12&#45;&gt;20 -->
<g id="edge20" class="edge">
<title>12-&gt;20</title>
<path fill="none" stroke="#000000" d="M881.2404,-316.7528C908.2847,-303.8458 938.3587,-289.4928 964.709,-276.9171"/>
<polygon fill="#000000" stroke="#000000" points="966.3456,-280.0142 973.863,-272.5483 963.3306,-273.6968 966.3456,-280.0142"/>
</g>
<!-- 14 -->
<g id="node15" class="node">
<title>14</title>
<polygon fill="none" stroke="#000000" points="757.7438,-169.7003 634.9706,-169.7003 634.9706,-94.2997 757.7438,-94.2997 757.7438,-169.7003"/>
<text text-anchor="middle" x="696.3572" y="-153" font-family="Times,serif" font-size="14.00" fill="#000000">timedelta &lt;= 1.588</text>
<text text-anchor="middle" x="696.3572" y="-136.2" font-family="Times,serif" font-size="14.00" fill="#000000">mse = 0.951</text>
<text text-anchor="middle" x="696.3572" y="-119.4" font-family="Times,serif" font-size="14.00" fill="#000000">samples = 651</text>
<text text-anchor="middle" x="696.3572" y="-102.6" font-family="Times,serif" font-size="14.00" fill="#000000">value = 7.641</text>
</g>
<!-- 13&#45;&gt;14 -->
<g id="edge14" class="edge">
<title>13-&gt;14</title>
<path fill="none" stroke="#000000" d="M766.4704,-205.5528C757.7503,-196.4048 748.3377,-186.5305 739.3267,-177.0774"/>
<polygon fill="#000000" stroke="#000000" points="741.6402,-174.4318 732.207,-169.6085 736.5734,-179.2617 741.6402,-174.4318"/>
</g>
<!-- 17 -->
<g id="node18" class="node">
<title>17</title>
<polygon fill="none" stroke="#000000" points="927.3,-169.7003 775.4144,-169.7003 775.4144,-94.2997 927.3,-94.2997 927.3,-169.7003"/>
<text text-anchor="middle" x="851.3572" y="-153" font-family="Times,serif" font-size="14.00" fill="#000000">kw_min_max &lt;= -0.267</text>
<text text-anchor="middle" x="851.3572" y="-136.2" font-family="Times,serif" font-size="14.00" fill="#000000">mse = 1.518</text>
<text text-anchor="middle" x="851.3572" y="-119.4" font-family="Times,serif" font-size="14.00" fill="#000000">samples = 162</text>
<text text-anchor="middle" x="851.3572" y="-102.6" font-family="Times,serif" font-size="14.00" fill="#000000">value = 8.087</text>
</g>
<!-- 13&#45;&gt;17 -->
<g id="edge17" class="edge">
<title>13-&gt;17</title>
<path fill="none" stroke="#000000" d="M818.9464,-205.5528C822.7379,-196.9483 826.8126,-187.7011 830.7497,-178.7664"/>
<polygon fill="#000000" stroke="#000000" points="833.9556,-180.1708 834.7851,-169.6085 827.5499,-177.3481 833.9556,-180.1708"/>
</g>
<!-- 15 -->
<g id="node16" class="node">
<title>15</title>
<polygon fill="none" stroke="#000000" points="631.8514,-58.6014 534.863,-58.6014 534.863,.2014 631.8514,.2014 631.8514,-58.6014"/>
<text text-anchor="middle" x="583.3572" y="-41.8" font-family="Times,serif" font-size="14.00" fill="#000000">mse = 0.878</text>
<text text-anchor="middle" x="583.3572" y="-25" font-family="Times,serif" font-size="14.00" fill="#000000">samples = 611</text>
<text text-anchor="middle" x="583.3572" y="-8.2" font-family="Times,serif" font-size="14.00" fill="#000000">value = 7.566</text>
</g>
<!-- 14&#45;&gt;15 -->
<g id="edge15" class="edge">
<title>14-&gt;15</title>
<path fill="none" stroke="#000000" d="M654.9218,-94.3048C644.5819,-84.8982 633.5157,-74.8309 623.2519,-65.4936"/>
<polygon fill="#000000" stroke="#000000" points="625.3372,-62.659 615.5849,-58.5186 620.6267,-67.837 625.3372,-62.659"/>
</g>
<!-- 16 -->
<g id="node17" class="node">
<title>16</title>
<polygon fill="none" stroke="#000000" points="742.572,-58.6014 650.1424,-58.6014 650.1424,.2014 742.572,.2014 742.572,-58.6014"/>
<text text-anchor="middle" x="696.3572" y="-41.8" font-family="Times,serif" font-size="14.00" fill="#000000">mse = 0.672</text>
<text text-anchor="middle" x="696.3572" y="-25" font-family="Times,serif" font-size="14.00" fill="#000000">samples = 40</text>
<text text-anchor="middle" x="696.3572" y="-8.2" font-family="Times,serif" font-size="14.00" fill="#000000">value = 8.785</text>
</g>
<!-- 14&#45;&gt;16 -->
<g id="edge16" class="edge">
<title>14-&gt;16</title>
<path fill="none" stroke="#000000" d="M696.3572,-94.3048C696.3572,-85.9126 696.3572,-76.9946 696.3572,-68.5382"/>
<polygon fill="#000000" stroke="#000000" points="699.8573,-68.5186 696.3572,-58.5186 692.8573,-68.5187 699.8573,-68.5186"/>
</g>
<!-- 18 -->
<g id="node19" class="node">
<title>18</title>
<polygon fill="none" stroke="#000000" points="853.572,-58.6014 761.1424,-58.6014 761.1424,.2014 853.572,.2014 853.572,-58.6014"/>
<text text-anchor="middle" x="807.3572" y="-41.8" font-family="Times,serif" font-size="14.00" fill="#000000">mse = 1.012</text>
<text text-anchor="middle" x="807.3572" y="-25" font-family="Times,serif" font-size="14.00" fill="#000000">samples = 28</text>
<text text-anchor="middle" x="807.3572" y="-8.2" font-family="Times,serif" font-size="14.00" fill="#000000">value = 7.555</text>
</g>
<!-- 17&#45;&gt;18 -->
<g id="edge18" class="edge">
<title>17-&gt;18</title>
<path fill="none" stroke="#000000" d="M835.2231,-94.3048C831.5521,-85.7282 827.6461,-76.6024 823.9562,-67.9813"/>
<polygon fill="#000000" stroke="#000000" points="827.0586,-66.3347 819.906,-58.5186 820.6233,-69.0892 827.0586,-66.3347"/>
</g>
<!-- 19 -->
<g id="node20" class="node">
<title>19</title>
<polygon fill="none" stroke="#000000" points="968.8514,-58.6014 871.863,-58.6014 871.863,.2014 968.8514,.2014 968.8514,-58.6014"/>
<text text-anchor="middle" x="920.3572" y="-41.8" font-family="Times,serif" font-size="14.00" fill="#000000">mse = 1.552</text>
<text text-anchor="middle" x="920.3572" y="-25" font-family="Times,serif" font-size="14.00" fill="#000000">samples = 134</text>
<text text-anchor="middle" x="920.3572" y="-8.2" font-family="Times,serif" font-size="14.00" fill="#000000">value = 8.198</text>
</g>
<!-- 17&#45;&gt;19 -->
<g id="edge19" class="edge">
<title>17-&gt;19</title>
<path fill="none" stroke="#000000" d="M876.6585,-94.3048C882.6627,-85.3593 889.068,-75.8163 895.0716,-66.8718"/>
<polygon fill="#000000" stroke="#000000" points="898.0113,-68.7723 900.6784,-58.5186 892.1992,-64.8711 898.0113,-68.7723"/>
</g>
<!-- 21 -->
<g id="node22" class="node">
<title>21</title>
<polygon fill="none" stroke="#000000" points="1123.9694,-169.7003 946.745,-169.7003 946.745,-94.2997 1123.9694,-94.2997 1123.9694,-169.7003"/>
<text text-anchor="middle" x="1035.3572" y="-153" font-family="Times,serif" font-size="14.00" fill="#000000">global_subjectivity &lt;= 1.316</text>
<text text-anchor="middle" x="1035.3572" y="-136.2" font-family="Times,serif" font-size="14.00" fill="#000000">mse = 0.994</text>
<text text-anchor="middle" x="1035.3572" y="-119.4" font-family="Times,serif" font-size="14.00" fill="#000000">samples = 460</text>
<text text-anchor="middle" x="1035.3572" y="-102.6" font-family="Times,serif" font-size="14.00" fill="#000000">value = 7.975</text>
</g>
<!-- 20&#45;&gt;21 -->
<g id="edge21" class="edge">
<title>20-&gt;21</title>
<path fill="none" stroke="#000000" d="M1035.3572,-205.5528C1035.3572,-197.22 1035.3572,-188.2845 1035.3572,-179.6137"/>
<polygon fill="#000000" stroke="#000000" points="1038.8573,-179.6084 1035.3572,-169.6085 1031.8573,-179.6085 1038.8573,-179.6084"/>
</g>
<!-- 24 -->
<g id="node25" class="node">
<title>24</title>
<polygon fill="none" stroke="#000000" points="1234.572,-161.4014 1142.1424,-161.4014 1142.1424,-102.5986 1234.572,-102.5986 1234.572,-161.4014"/>
<text text-anchor="middle" x="1188.3572" y="-144.6" font-family="Times,serif" font-size="14.00" fill="#000000">mse = 0.451</text>
<text text-anchor="middle" x="1188.3572" y="-127.8" font-family="Times,serif" font-size="14.00" fill="#000000">samples = 32</text>
<text text-anchor="middle" x="1188.3572" y="-111" font-family="Times,serif" font-size="14.00" fill="#000000">value = 8.947</text>
</g>
<!-- 20&#45;&gt;24 -->
<g id="edge24" class="edge">
<title>20-&gt;24</title>
<path fill="none" stroke="#000000" d="M1087.156,-205.5528C1103.9879,-193.3194 1122.6069,-179.7871 1139.2373,-167.7002"/>
<polygon fill="#000000" stroke="#000000" points="1141.7012,-170.2363 1147.7326,-161.5258 1137.5857,-164.5739 1141.7012,-170.2363"/>
</g>
<!-- 22 -->
<g id="node23" class="node">
<title>22</title>
<polygon fill="none" stroke="#000000" points="1083.8514,-58.6014 986.863,-58.6014 986.863,.2014 1083.8514,.2014 1083.8514,-58.6014"/>
<text text-anchor="middle" x="1035.3572" y="-41.8" font-family="Times,serif" font-size="14.00" fill="#000000">mse = 0.954</text>
<text text-anchor="middle" x="1035.3572" y="-25" font-family="Times,serif" font-size="14.00" fill="#000000">samples = 424</text>
<text text-anchor="middle" x="1035.3572" y="-8.2" font-family="Times,serif" font-size="14.00" fill="#000000">value = 7.936</text>
</g>
<!-- 21&#45;&gt;22 -->
<g id="edge22" class="edge">
<title>21-&gt;22</title>
<path fill="none" stroke="#000000" d="M1035.3572,-94.3048C1035.3572,-85.9126 1035.3572,-76.9946 1035.3572,-68.5382"/>
<polygon fill="#000000" stroke="#000000" points="1038.8573,-68.5186 1035.3572,-58.5186 1031.8573,-68.5187 1038.8573,-68.5186"/>
</g>
<!-- 23 -->
<g id="node24" class="node">
<title>23</title>
<polygon fill="none" stroke="#000000" points="1194.572,-58.6014 1102.1424,-58.6014 1102.1424,.2014 1194.572,.2014 1194.572,-58.6014"/>
<text text-anchor="middle" x="1148.3572" y="-41.8" font-family="Times,serif" font-size="14.00" fill="#000000">mse = 1.232</text>
<text text-anchor="middle" x="1148.3572" y="-25" font-family="Times,serif" font-size="14.00" fill="#000000">samples = 36</text>
<text text-anchor="middle" x="1148.3572" y="-8.2" font-family="Times,serif" font-size="14.00" fill="#000000">value = 8.437</text>
</g>
<!-- 21&#45;&gt;23 -->
<g id="edge23" class="edge">
<title>21-&gt;23</title>
<path fill="none" stroke="#000000" d="M1076.7926,-94.3048C1087.1325,-84.8982 1098.1987,-74.8309 1108.4625,-65.4936"/>
<polygon fill="#000000" stroke="#000000" points="1111.0877,-67.837 1116.1295,-58.5186 1106.3772,-62.659 1111.0877,-67.837"/>
</g>
</g>
</svg>